<mxfile host="app.diagrams.net" modified="2022-05-27T12:41:24.331Z" agent="5.0 (Windows NT 10.0; Win64; x64) AppleWebKit/537.36 (KHTML, like Gecko) Chrome/102.0.5005.61 Safari/537.36" etag="pC5h1pmZQj86bPtAUiJX" version="18.1.2" type="github">
  <diagram id="9fimJ_VW_uSAaX8bO_zd" name="Page-1">
    <mxGraphModel dx="1673" dy="929" grid="0" gridSize="10" guides="1" tooltips="1" connect="1" arrows="1" fold="1" page="1" pageScale="1" pageWidth="1169" pageHeight="1654" background="none" math="0" shadow="0">
      <root>
        <mxCell id="0" />
        <mxCell id="1" parent="0" />
        <mxCell id="u27phqyVlF2WxJKG2f3T-11" value="" style="edgeStyle=orthogonalEdgeStyle;rounded=0;orthogonalLoop=1;jettySize=auto;html=1;" parent="1" source="u27phqyVlF2WxJKG2f3T-4" target="u27phqyVlF2WxJKG2f3T-6" edge="1">
          <mxGeometry relative="1" as="geometry" />
        </mxCell>
        <mxCell id="u27phqyVlF2WxJKG2f3T-4" value="Parkway Drive" style="rounded=1;whiteSpace=wrap;html=1;" parent="1" vertex="1">
          <mxGeometry x="170" y="150" width="120" height="60" as="geometry" />
        </mxCell>
        <mxCell id="u27phqyVlF2WxJKG2f3T-10" value="Passenger board down" style="edgeStyle=orthogonalEdgeStyle;rounded=0;orthogonalLoop=1;jettySize=auto;html=1;" parent="1" source="u27phqyVlF2WxJKG2f3T-6" target="u27phqyVlF2WxJKG2f3T-7" edge="1">
          <mxGeometry relative="1" as="geometry" />
        </mxCell>
        <mxCell id="u27phqyVlF2WxJKG2f3T-6" value="Driveway&amp;nbsp;" style="rounded=1;whiteSpace=wrap;html=1;" parent="1" vertex="1">
          <mxGeometry x="170" y="250" width="120" height="60" as="geometry" />
        </mxCell>
        <mxCell id="u27phqyVlF2WxJKG2f3T-9" value="Map overview and &lt;br&gt;parking slot information&amp;nbsp;" style="edgeStyle=orthogonalEdgeStyle;rounded=0;orthogonalLoop=1;jettySize=auto;html=1;" parent="1" source="u27phqyVlF2WxJKG2f3T-7" target="u27phqyVlF2WxJKG2f3T-8" edge="1">
          <mxGeometry relative="1" as="geometry" />
        </mxCell>
        <mxCell id="u27phqyVlF2WxJKG2f3T-7" value="Drop Off Zone" style="rounded=1;whiteSpace=wrap;html=1;" parent="1" vertex="1">
          <mxGeometry x="170" y="360" width="120" height="60" as="geometry" />
        </mxCell>
        <mxCell id="u27phqyVlF2WxJKG2f3T-13" style="edgeStyle=orthogonalEdgeStyle;rounded=0;orthogonalLoop=1;jettySize=auto;html=1;exitX=0.5;exitY=1;exitDx=0;exitDy=0;entryX=0;entryY=0.5;entryDx=0;entryDy=0;" parent="1" source="u27phqyVlF2WxJKG2f3T-8" target="u27phqyVlF2WxJKG2f3T-12" edge="1">
          <mxGeometry relative="1" as="geometry" />
        </mxCell>
        <mxCell id="u27phqyVlF2WxJKG2f3T-14" value="detect slot&amp;nbsp;" style="edgeLabel;html=1;align=center;verticalAlign=middle;resizable=0;points=[];" parent="u27phqyVlF2WxJKG2f3T-13" vertex="1" connectable="0">
          <mxGeometry x="-0.3867" y="1" relative="1" as="geometry">
            <mxPoint as="offset" />
          </mxGeometry>
        </mxCell>
        <mxCell id="u27phqyVlF2WxJKG2f3T-8" value="Parking Preparation&amp;nbsp;" style="rounded=1;whiteSpace=wrap;html=1;" parent="1" vertex="1">
          <mxGeometry x="170" y="510" width="120" height="60" as="geometry" />
        </mxCell>
        <mxCell id="u27phqyVlF2WxJKG2f3T-15" value="Pick Up&amp;nbsp; Call" style="edgeStyle=orthogonalEdgeStyle;rounded=0;orthogonalLoop=1;jettySize=auto;html=1;exitX=1;exitY=0.5;exitDx=0;exitDy=0;entryX=1;entryY=0.5;entryDx=0;entryDy=0;" parent="1" source="u27phqyVlF2WxJKG2f3T-12" target="u27phqyVlF2WxJKG2f3T-7" edge="1">
          <mxGeometry x="-0.3023" relative="1" as="geometry">
            <mxPoint as="offset" />
          </mxGeometry>
        </mxCell>
        <mxCell id="u27phqyVlF2WxJKG2f3T-12" value="Parked in a Parking Slot&amp;nbsp;" style="rounded=1;whiteSpace=wrap;html=1;" parent="1" vertex="1">
          <mxGeometry x="340" y="580" width="120" height="60" as="geometry" />
        </mxCell>
        <mxCell id="u27phqyVlF2WxJKG2f3T-16" value="&lt;h1&gt;High Level WorkFlow of AVP&lt;/h1&gt;" style="text;html=1;strokeColor=none;fillColor=none;spacing=5;spacingTop=-20;whiteSpace=wrap;overflow=hidden;rounded=0;" parent="1" vertex="1">
          <mxGeometry x="170" y="100" width="360" height="40" as="geometry" />
        </mxCell>
        <mxCell id="8IPp3ztczL0MQTCLtt1g-3" value="" style="edgeStyle=orthogonalEdgeStyle;rounded=0;orthogonalLoop=1;jettySize=auto;html=1;" parent="1" source="8IPp3ztczL0MQTCLtt1g-1" target="8IPp3ztczL0MQTCLtt1g-2" edge="1">
          <mxGeometry relative="1" as="geometry" />
        </mxCell>
        <mxCell id="8IPp3ztczL0MQTCLtt1g-1" value="Lidar Point Cloud Data&amp;nbsp;&lt;br&gt;(offline)" style="rounded=1;whiteSpace=wrap;html=1;" parent="1" vertex="1">
          <mxGeometry x="60" y="800" width="120" height="60" as="geometry" />
        </mxCell>
        <mxCell id="8IPp3ztczL0MQTCLtt1g-17" value="" style="edgeStyle=orthogonalEdgeStyle;rounded=0;orthogonalLoop=1;jettySize=auto;html=1;" parent="1" source="8IPp3ztczL0MQTCLtt1g-2" target="8IPp3ztczL0MQTCLtt1g-4" edge="1">
          <mxGeometry relative="1" as="geometry" />
        </mxCell>
        <mxCell id="8IPp3ztczL0MQTCLtt1g-2" value="NDT Matching&amp;nbsp;" style="shape=process;whiteSpace=wrap;html=1;backgroundOutline=1;" parent="1" vertex="1">
          <mxGeometry x="60" y="910" width="120" height="60" as="geometry" />
        </mxCell>
        <mxCell id="8IPp3ztczL0MQTCLtt1g-6" value="" style="edgeStyle=orthogonalEdgeStyle;rounded=0;orthogonalLoop=1;jettySize=auto;html=1;" parent="1" source="8IPp3ztczL0MQTCLtt1g-4" target="8IPp3ztczL0MQTCLtt1g-5" edge="1">
          <mxGeometry relative="1" as="geometry" />
        </mxCell>
        <mxCell id="8IPp3ztczL0MQTCLtt1g-4" value="Raw NDT Map" style="rounded=1;whiteSpace=wrap;html=1;" parent="1" vertex="1">
          <mxGeometry x="60" y="1010" width="120" height="60" as="geometry" />
        </mxCell>
        <mxCell id="8IPp3ztczL0MQTCLtt1g-12" value="final NDT map" style="edgeStyle=orthogonalEdgeStyle;rounded=0;orthogonalLoop=1;jettySize=auto;html=1;exitX=1;exitY=0.5;exitDx=0;exitDy=0;entryX=0;entryY=0.5;entryDx=0;entryDy=0;" parent="1" source="8IPp3ztczL0MQTCLtt1g-5" target="8IPp3ztczL0MQTCLtt1g-8" edge="1">
          <mxGeometry relative="1" as="geometry" />
        </mxCell>
        <mxCell id="8IPp3ztczL0MQTCLtt1g-5" value="NDT Map Down Sampller" style="rounded=1;whiteSpace=wrap;html=1;" parent="1" vertex="1">
          <mxGeometry x="60" y="1110" width="120" height="60" as="geometry" />
        </mxCell>
        <mxCell id="8IPp3ztczL0MQTCLtt1g-16" value="" style="edgeStyle=orthogonalEdgeStyle;rounded=0;orthogonalLoop=1;jettySize=auto;html=1;" parent="1" source="8IPp3ztczL0MQTCLtt1g-8" target="8IPp3ztczL0MQTCLtt1g-15" edge="1">
          <mxGeometry relative="1" as="geometry" />
        </mxCell>
        <mxCell id="8IPp3ztczL0MQTCLtt1g-8" value="NDT Matching&amp;nbsp;" style="shape=process;whiteSpace=wrap;html=1;backgroundOutline=1;" parent="1" vertex="1">
          <mxGeometry x="270" y="990" width="120" height="60" as="geometry" />
        </mxCell>
        <mxCell id="8IPp3ztczL0MQTCLtt1g-13" value="real-time PCD" style="edgeStyle=orthogonalEdgeStyle;rounded=0;orthogonalLoop=1;jettySize=auto;html=1;exitX=0.5;exitY=1;exitDx=0;exitDy=0;entryX=0.5;entryY=0;entryDx=0;entryDy=0;" parent="1" source="8IPp3ztczL0MQTCLtt1g-9" target="8IPp3ztczL0MQTCLtt1g-8" edge="1">
          <mxGeometry x="-0.7949" relative="1" as="geometry">
            <mxPoint as="offset" />
          </mxGeometry>
        </mxCell>
        <mxCell id="8IPp3ztczL0MQTCLtt1g-9" value="Lidar Point Cloud Data&amp;nbsp;&lt;br&gt;(online)" style="rounded=1;whiteSpace=wrap;html=1;" parent="1" vertex="1">
          <mxGeometry x="210" y="800" width="110" height="60" as="geometry" />
        </mxCell>
        <mxCell id="8IPp3ztczL0MQTCLtt1g-14" style="edgeStyle=orthogonalEdgeStyle;rounded=0;orthogonalLoop=1;jettySize=auto;html=1;exitX=0.5;exitY=1;exitDx=0;exitDy=0;" parent="1" source="8IPp3ztczL0MQTCLtt1g-11" edge="1">
          <mxGeometry relative="1" as="geometry">
            <mxPoint x="330" y="990" as="targetPoint" />
          </mxGeometry>
        </mxCell>
        <mxCell id="8IPp3ztczL0MQTCLtt1g-18" value="Position &amp;amp; Orientation" style="edgeLabel;html=1;align=center;verticalAlign=middle;resizable=0;points=[];" parent="8IPp3ztczL0MQTCLtt1g-14" vertex="1" connectable="0">
          <mxGeometry x="-0.7684" y="-2" relative="1" as="geometry">
            <mxPoint as="offset" />
          </mxGeometry>
        </mxCell>
        <mxCell id="8IPp3ztczL0MQTCLtt1g-11" value="GPS, IMU &amp;amp; ODOM" style="rounded=1;whiteSpace=wrap;html=1;" parent="1" vertex="1">
          <mxGeometry x="340" y="800" width="100" height="60" as="geometry" />
        </mxCell>
        <mxCell id="8IPp3ztczL0MQTCLtt1g-15" value="Pose&amp;nbsp;" style="ellipse;whiteSpace=wrap;html=1;" parent="1" vertex="1">
          <mxGeometry x="270" y="1100" width="120" height="50" as="geometry" />
        </mxCell>
        <mxCell id="8IPp3ztczL0MQTCLtt1g-19" value="&lt;h1&gt;Overall Framework for NDT based mapping and localization&amp;nbsp;&lt;/h1&gt;" style="text;html=1;strokeColor=none;fillColor=none;spacing=5;spacingTop=-20;whiteSpace=wrap;overflow=hidden;rounded=0;" parent="1" vertex="1">
          <mxGeometry x="60" y="720" width="390" height="80" as="geometry" />
        </mxCell>
        <mxCell id="4jUlqWk6TONZdT830c8g-1" value="" style="shape=image;verticalLabelPosition=bottom;labelBackgroundColor=default;verticalAlign=top;aspect=fixed;imageAspect=0;image=data:image/png,iVBORw0KGgoAAAANSUhEUgAAArAAAAKOCAMAAABp6tpZAAAABGdBTUEAALGPC/xhBQAAAAFzUkdCAK7OHOkAAAAJdnBBZwAABvoAAAneANJhYVIAAAAhUExURf///wgKCsXPzzQ8PIGRkevv75+vr1BeYBQYGCw0NG6BgSOU1bwAACAASURBVHgB7V2JlqSqEpyu6ru9///gFxGZgLugWGt6ZmyB3IgMES2XP39iCQQCgUAgEAgEAoFA4B0R+Ofn+HJ7xw5HzO+MAOh6P0i7v37B9H/eufMR+7shcPv3HONuPz//vlufI973RQB8+/tk9H///Jy0EOqBQC0CP//+VSu6KvfXz3+rbdEQCPREoM/g+Pvz2zOosBUIrCDwv04H83872VkJM6oDAUOg27H83IlbpCMQqELg3m1g7GepKvAQ+k4Eug2wf/7ELPY7KfTYXndkWUfuPxaD8PY+CPx2mxH8+RNzgvfJ+9tG2uealnf/5/z13LcFMgJ/DAI//+vop6uxjnGFqc9BYG9QXPk1YLk67ij4HGK8aE/+3pnC3paZuVIdk9gXTfPnhPXPDmFXriGsVPc8g/scjKMnHRFYGRNx/9Yv7o/lna48K7vdUabXGwo/v6l6FsfeeD1TiIpAoA2B5RsAfsHO2w9v6BZPSdM/P3fx9w7urv5E8BcFYwkErkNg+aqWeFcIK6GyQjQrU4I/QdjrUhWWicDyCCty/uYR9n6HZA1hY4QNVl2MwH+LYyKmsF6fhlKbCRhryd6ViweL1i7uQpj/JgTWrhKAsRxWnZncrhlh46Trm7jzlL6u371tg6yG0sLV6cA7iXnd2kQwioHAMQSWZ502uPL4boTlBKCwNlXPPS7PiOdyURMIHEVg8XlZTUWNofc/d3GVV7N+yxyW1fPFphHz+qgJBHohsMgx/Exws/MqTQxA1h9wFYz90bUuDreLp1eL7O8VadgJBIBAz6N4nHMFpS5H4K+927UaIlgedhsMhGggsItAx+daVq7O7oYQAoFAPQIrt7/UG8iS/Sxlk7ERCEwRsJtcprVHyjEjOIJa6LQi0Itnf3ecDbf2IeS/CIG/Or2xpRfxvwj66OohBP7xi6uHlLNS8DVDERsXI/BvhysF/8WE4OIshfmCwMoPV0Vgbws/gZ19JfKei2gPBAoCf/ndhKWmZYu3z8YrNFoQC9nTCJz5iEy6w+B0EGEgEKhH4O//MFAeWP79J0bXepRD8jEILN6c9RjX4SUQaEcgCNuOWWg8EYEg7BPBD9ftCARh2zELjSciEIR9Ivjhuh2BIGw7ZqHxRASCsE8EP1y3IxCEbccsNJ6IQBD2ieCH63YEgrDtmIXGExEIwj4R/HDdjkAQth2z0HgiAkHYJ4IfrtsRCMK2YxYaT0LghuUH/5/kPtwGAo0I+E2yjVohHgg8CQG7s7vnNz6f1JFw+yUIaIj9kr5GNz8AAQ6xMcB+QCK/pgsg7Nf0NTr6AQj8FwPsB2Txm7oQA+w3ZXveV79QFH+uQ2AOetQcR+C6PIVlR+B4ckJzjkAcYeeYdK2Jk8SucMZXr/vCObcWhJ1jcqYmRtgz6FXoBmErQGoQ2SbsbfyVwVJc/ob2n+qvYeCDcQ1B7oludwLaty2J3xzKltRyDLuI5E82LutHbSsC0xzh/ar3X3xw0Jg6GR5SEQJLfm5QXqqf1d1+QaE60ZnuQsXvnqnNuH7zvrNrZ+479WIFESgkiblu1BxBYJZrA3iPTzM1jGL12enyZvj13o4PC5Rb3sHcQibs1OLczlRiUF5ARK1B2AFIHTZnODvAO4ydqf25vwxhy2E643OIsAt2ssH5xhwRkwnCzrE6UzPDOQGc/i4bn6n9atTcVsqmrh1hF76yfIiwC3ZyD+YbM0RcpBKSucGoWURghnMC+I4jpYZZfu4dC0hmoy7u+fc54e2ex2E8CcAhFqK4Wk7xQRurJEhFCKWnBn5+VVTjPSugmKbQLvAHplNU7sFcuD3W8fPe7toiYQwIGLa4obUCz8cBs8iPhecpgdtx/25HErRhiz4kTrN3RIme0HxGBBDMdg3zk9Tj71kElM+hkQQw8uWJthoKKhvc0OmJTr3zMOQjrLEWOYRUbruj8VeXfC2fJpvswP4dqU8KdCf7qsGKf4stCwsn9gqrBEIfJpXdmk2qjwNXyarE33SVQPJO/+RSbDYEFAYUTPMHu1jaRkuJmGKDpegOKmPzMAJiw1A7ATwlLFPLVHlWUdLloCTOEdhJxKpxm1Is4t2MACntGJugRMIUhcxmhvYLUijEuR+rITsVUqKRsxa6RqI7rbNRlBKlJWryFMsjrHdNHWE9TFu3MJ5SEAuDM24qqgkirLN6CWuVAy9VsXUCgSm+NnDBoK72KKuqkhyLzhNIjH8qHxN23CYzOHxyIX9E01x0TZW9kWk336SjLWjiokAQhB2NFc4aYTMTZcsDT5Zp3lxksQXCWpV32r2rzilMC0NE0mCtULWy1lKOrXMIKP9DEwlgzNBSRjmkKBNKjwYbqoloWdVpx3omkcNUXkQMzz0r2Zr8uGxRMENFYKAnXa5g0OfRNCMJ+ZDRMhxm+ihwxiy3Eh1UJTHzlPxrhLVhuQRL2xIbEjYjArnSD3rDUvpp5VifQ0BZHJpIAOuvUgvQdVw1/lo71SxniZmWZ9VjNW6TGSce2UFZ94OiaSrrNGbFLGD8AE08SAUMgzWElSwVB+xEncIZVG0SVn4TKAjGZtvewaFhiw+U9UBTvJPyuDVKrQjM4HTAdQ5jqWWGTWyQZPgxkWRgTNhxmxhiFLX8Y22EY1GaRSERVpNozgBs1Mp+2EMexS0mSq+NsN4Hheo0lbM8CfVrcRuENWJqqk2/uMKhP/CuHWxO2LQjulgKMxdj4yQCiQfZjPNAtEmENU55zjkN5e+3zMVgPNHsVMq+GrXRPCjqP/lq1qi5KdNuc0g2KphEWJoX06WX4yRTxFBNYn2LVijhK/z0qyVZsH6w0YZ5XifDZTv24xdtFkBu1E4kY/oJGUUDgyZxkcs4a7Emw46IQjAmy780cuS5KjZOIDCBk6zBop+tmP+UF3nwIq/QpvGlqOtgSfksldrETI1MPoy6BOpBLLXSvA3jKpKiaPr1YcybrJe4BpYIBjGaheKPSC3X3JEyZ1zUHbo8DaMHioguUpzZjqxlO9mdByljbtH/JERwR0F2bdESw7QVf3sg8HZwPjdg31EbkA/CNoBVIfrc/FcEOBV5asA+N8DoW70EYauhqhJ8av6rIpwIPTVgTpb4y/Ikpq1iEHYLnfa2p+b/QLiYNc6mie1mDmvwPoOW8TXmsIehXlF8M8Ku9OKFq2OE7ZucIGxfPGfWgrAzSE5VBGFPwbevHITdx6hFIgjbgtYB2SDsAdA2VIKwG+D0aArC9kCx2NgjbMNJcTIFFfsFtHjB1uzcuu2RKdoammBcfkvOyM2hQi9DS9cvgrCHUrKqlFi2LKAf04c8WRZTrd+JZ49wT80uPAbdmsmhCXcy9bIR3WZTayjLxvxxnEljH9sTo19c3M550yVyQ3FNZdtRVQaKiTUnVWaS0O/k+v+kmMTq/y4cV+I6bD18dZKFBEvyB4ixprLtaMn5rK6YWHMyU9mqmBjxG362NHbagrA7APVoLiRYsjbJ6ZLItG5NZdvR1MpiuZhYc7KotlI5eTig7QfXRZtB2EVY+lYWEhS797tNx/irebpj2Z5gxs1/vIePJxdos/ufsaHbVjVZMxXcx0dr5SHr9GC4anF3Hxspc+ftpRJO1ijB+0/pAzfr8W5D1sibtliwuPxePn/wWvd7+5OT0MLEO7mn/p/UJ8XMFYLOfaMz2oQOvUqBt+9akGzj0+D8yypq8lZE9YHzCA8XzaY5WlMuln4ILMHJOvvFvoxkqmMS73ejIwWUDJc21ip7yjUyTwKQ21mUYZMWrJQVbqiZlwxyapl40oZ3WbvZkQmIwgh2AqrfpYn5aHLF/YhN2T196KZXk3CKwQO3uJgh2VSj1YKddxjiKaeasMJ5H9+lgH96UwJ2N8acwg3CGnDXrkm3yaK8YsBBtVZqphz+a3Dks9p6LFsbbOF1IR9fpGJDLhvQakYoxkXWuaEmVrCF/+0RcG+RNWNYtp1MZJMkLK3bkK1SXsmk4oCQeVWfFA1XhbDOddSZQypgsU7AqV3/YDH1USzmipW5wVulnFd5N8w1sXEGgUKCbEWDivOIrNXi12Mtd0gCDolc8GwI88YlJZMqlkdJ5HoJMfvukjIuChktyRSNsTUT1nRKrL4PiJ2QG7A7cRghmHv6gCWZpplNwiK4EoMClIo5RtOwjzLknbBwg7AG9qXrQoLspiR3MMKSoaBiIWyics7wMJkiLLmDxVQ04HnZ6Ge5tpF8kmoUVVMIK1sl1iFh0TQQLoR19/JZS1juTmYbatWETeEqDPNX1tbZUo6tcwgUEmQ7okk5TJZ6yDph8SCU8YFP31EA9PV05YHHB58ZYckE6li72XFdH93YoppCWDnRSuEMCMuTJWsVVwthizRUSp+kytXSlIDGM8NmhOXbxYr7UUfV4K0SyatsLtfExhkERmk1QwaxkSCNo2pBipywiXQ57+DJMJlGOZIH/50sHiXtykrmAxvkMzmjgqxVETZr0bJpsEoXDPxhycRCSXCvWCPsqNM5QG0oomEfM2FzuEFYQHv1ohRNnDADPPlGYvOMTrkm1chRtmmG6BvKaEomVTzXdnzVTfo45TZbNMA3ZknGqUC7WORSpn95Pp5O/MUwRJJNpLjE8vzgNU7ooSU1eVKAic1issf9i5N7BMOLZnDGxQyhKBImSKxWHWe9Arc2waIVOwCfFm4Q1uC8dJ2yM3Ji13mMk96AlJBPIGw+L0nHVHsOmic5JBUWrSFspyLkJ1oyGyGI9KPNBfkXS7Jm2+JHFlHzwIQa6BCa+iMTvASFCrMMleSeFhm5R0BHY49miLNpXEdLYtYJa7IemC+8GJSVJX7b9aDMnc52SvNoa+vdsCa2zyCg1NUb8DOoeoXLJY2GaXe43F2zgyBsM2SbCu9OWI7WWOYj22avH9gYhO0L9tsTtv3B674A7lkLwu4h1NbeRljN3tocXC3Nn/Vfd3z1E7qrQfgi+22E/SJgenU1RtheSJqdIGxfPGfWgrAzSE5VBGFPwbevHITdx6hFIgjbgtYB2SDsAdA2VIKwG+D0aArC9kCx2HgOYfPPTiWQ7a3nhLkdU11rELYOp1qppzABTtvy+Ho/sNXi29jRarNfK9iZsFU/keaf678B9bY98xsQOdfHvoSto2KdlPerb4BDsBZvrhoKdNkOwnaBMRvpygd/jjUbX9loIazdgLhi6Fz1Y6j0GC/nkHgn7Z6E1U2tevCJd56ipJ9McV+r3UyNOwH56KKk6Ba/qerOFdwdC0ms/RFVC8laJUxZYZp2CJQGPIBRvzeRLmkSY+dSBB4G/OiJWv7ODGEr0T/jHdx0K5enV4NAT9sKA0hQTxDECN4pinGRjEGy7JloUZGkkzuNsBo6uQUl3g5gj3Tf0mfrIahDtq0kzE3etIrba2/2gDVj55PY/E4RiOouITSMAIyEUdi/4xFtj0FPkhmV3KhFofgo028JwvbDkpbEoF4mbQizozi5YaTkmMe0kVMac4025MWQOOKSVTpZqSDC2ppFmVSdDceM3MzRgVxCaikC1XGlB9QVD/s+LvWFg8ENDwUqx+ocAkxat2VIWBjFuIe1eGYEIR1ZI2IZdyEhwjntEmEppuN8Iaxt8bg9JSwt+YUvH2pTrwYR5OfIOBPA4lSyQolCIdN7r6W7wV6BvamdlNou4Y8IiwP0eIRFsXDTJ7gijnisJq2MmeTQaIR1Sq4QVkpymUdYThFKBIWwHKi5iEranVSyvcm4rPY+qyBsHxyTlcsIyzOYQhdPm9GUtBxyd4Gw4t+UsGIaKpdGWNaZy0zYcQSFsHIHKSNsLmkDsGC3SuD0+NvXWo+I3ttG1+QMR1iybUxYHrnzOIoTIwLHlepKi/hoZIIJkdPWefhdIixdmcvk14t0gCqbM1DKrihQnM5LKRE2zS7Q2GMJwvZAsdhg0rotYCHeje1U1Cv+QFLRhXV0ZQVyQ5eoeF6f5dMm+YhTKj6ny0dU+Uy4KGpnaCCfBsvBSZcMS5uPH0BpGgF3Fe08tgf5YR/DPUxrEptcK0bW9luCsP2wpCUmu9/C60ZkgIZGsg3/sKgOU0qNkTgRspmBXWSyNlurBZzDwZwvQHBxks00Bg+UU9RjB+8kCV90uRGB66SDvs2KreRNMKV9qh8kKcp+Fr/bUl/CPgVLzlVfdwnC9s1NELYvnjNrQdgZJKcqgrCn4NtXDsLuY9QiwblbLJci0JKOkP04BD7gkPBxOYkObSAQhN0AJ5peD4Eg7OvlJCLaQCAIuwFONL0eAkHY18tJRLSBQBB2A5xoej0EgrCvl5OIaAOBIOwGONH0eggEYV8vJxHRBgJB2A1woun1EAjCvl5OIqI1BPw3/7XmqA8EXguB/4yxrxVURBMIrCIgwq62RkMg8GIIaIh9sZginEBgHQEMseuN0RIIvBoCGGJfLaSIJxDYQCD4ugHORzb5paH48xQEPpJS13bqKXkKp47Atbn9SOsxCXxiWmNC0w5+ELYds24aQdh2KIOw7Zh10wjCtkMZhG3HrJtGELYdyiBsO2bdNIKw7VAGYdsx66YRhG2HMgjbjlk3jSBsO5RB2HbMumkEYduhDMK2Y9ZNIwjbDmUQth2zbhpB2HYog7DtmHXTCMK2QxmEbcesm0YQth3KIGw7Zt00grDtUB4m7NrngCZJKMXx91j0ne37+gc01ltW+siPLK00LVc3ii8bOVdbwDln55u0VwjLL2PhFrh1JPwrRTMB+3hQrh4UR5934XeM0je5snDZwPeGSqFqC/YadUbxVPnoLtTaye4BvKHBZVLq023rDNAH4Bo+uLYguje+lVxWjbX2aa5a/BfiqVXdk2sa5Usn98xGe0JgmbA+WI24UtC9NRJW8smh/60nbPE7MTEsNhF2KZ6hsRPb9yDsCfRqVJcJuzAfHBxwxY4GiiyJVhN2OcBp15ZcTGVS2b+UmIo9/+p7ovUGq/bFenNfIbnCB/+8NiHAB2PBrhty4aMHvoeJLax8knv/tc8gCy/aAyNSG4suL4rq651m1T8w+/N7g22mLtmBJ8yfZQ3K+F6x2rkPURuuKQ7fDOfHPjWLGkYnTfxFAPjoJo3gj6/YKmFYU/zSv9/hgHZoPTuFJjtAB/7RenOZI4AsxfVdUM0v+CldbDhILPEjuLQCGVSPjlXeNUYfSysCOUkTRaTDQCaohN+mtZLScCZF5pSn+synLRLLbaYleX0JmVtGBLGBRXqRvNmBQZoqJ2viE/cIZF7aaNUOQiVaUZhsMk1RGm36LnMKzSppG3LSdl36smhpyqyoiiU1soTCUgTiqCKlZPahDlCZ3wa/33Q5RUFCaLxQLZY2BJSVJRWMD8qf5eIX+chSVk+KkNSqz2aMsKnNtIwHTDuHNv/EO7YSQcTJbMdMZW9OWDo3bWzICZlimsmSa6LePLpdecKKJtkwIKztlOqFpJJXWdKVDCmhzbo/jkB1XNklPiqxkyrRt/kXkYOwAL/LYkleNMWjqicK7ZYxCS4QNhuQmAkwSaWoXDKbc8IavUgNLuOSZT05pzZEVLShzeMvIWlgNBtDwooxd12MGxKWNDWNOWG1O6JVxF2KQLsAGzBv8EV7ZSqZf5hn7dKSurzUFnXLCCwT1iDnJDAlqmw4pYwiaYTNxiWf26aEVXaVPlvJT+Kc2zCy5VwWhspYKdqsgRNFKJpHKdGc2ZgQlrRiw5Cw4jErzUryaiGxLv03HCx++LMixXOVwqe487RsaCar5skquZtUR3EDAWfLREJEQraYe+UUZ10FXWMHZXQwLQ2okZgJULEULfWomo6wKQL7y/MYCNkEgRuFoaorRU0JKEl582iapJ86MCZsDmVIWNPgbifaq5hs0p9MsM26z/YSQR5hbd/BLFtmvOSSmmNbJFAeL8nduDZKWwgkuoxl7BiHn7uQAiSf2bKMSQw6dgYkwmLmMPiVKdPCmG5Fyhu5ZZAn9Jkg9psXfqk1O5g0GPlIIC7IddpbfPfwInnBjBePdjLOuiXCUl5c5Rmix2PcksacsHKANkS4HMHAPUPjToK/v4AMaygaTfUjNF3Ml+XauVzUFARWCAvM8fMoUwD4TcbOwVgDarFabVYU/diENrJx0Iai5MUVnsjpIG6jnOzccdlKrIWY7OhvnveBXiSz2JC05YQrGYBXCIEx+IMrbMa8vBb/OblhR+zgXOJhuCJtiYedgKjtpTTMC1jrEViHadsdW9fpD5UMin3jydrCQqFY2hAQsm0qXyD9IFSCsO1celBq2gN7qsaDUAnCtmf5QalpD+ypGg9CJQjbnuUHpaY9sKdqPAiVIGx7lh+UmvbAvkEjCNue5SBsO2bdNIKw7VAGYdsx66YRhG2HMgjbjlk3jSBsO5RB2HbMumkEYduhDMK2Y9ZNIwjbDmUQth2zbhpB2HYog7DtmHXTCMK2QxmEbcesm0YQth3KIGw7Zt00grDtUPK+uFiehUB7vkLjvRGIMeq98/d10Qdhvy7l793hIOx75+/rog/Cfl3K37vDQdj3zt/XRR+E/bqUv3eHg7Dvnb+viz4I+3Upf+8OO2Hj97r3TuP3RC/C8neq7+ly9PSdEQBR7WfVd+5ExP49CDzrJoCv8Ps9NHpcT/Xm9q9gzxM6+bg0fo8nzl2Vyu/p8qN6Onhd5aNcfoEfO9kCZb+grw/uYhD2CsATUdPfK3x8qc0gbO/E892tXHrbDXtCIAjbnQjG1yBsd2CDsFdBGgPsNcjSaoyw/bHVENvfbFgkAkHY/jzQFwj6mw2LRCAIewEP4pTrAlDdZBD2AmwD1AtAfW/C+pl4/DmEwHV0ut7ymw4Gh/IUSo7A9bS6zsPbEvY6SD7e8ltfIg7Cfjw/Zx0Mws4gubxi+Msnv6mZHWJbX/bMFZMNfS1zUrdZtI/OboqgcRDBnqi17yng0ti6IX3kc70ZLZvd3LC8afQlGj9ihC3J3cyzAC+ylfhXpbcZRvvO80YIK1/aNg37evKG9uYeVNWjLePPbGtG+pnBFt9j2pUhtmwV2bLFTG0SoYgub/GrwrNl+QvDM7HNivlRYTPOQtiliPa6GYTdzMUljRPCpuziG9gb2dDOmUQPhbVkXJ/LPmStKC2Mt5txFsIuRLTbzQWdEsqrb33GCPvHJ658NIWIg7caepDYX9tCJee6PxphExkG8118H16fiMdn4W3E9K/cQ40GYe9OqzT/i++2o9J86GbC/IMhXEgbIoM9BxinKCBuYyLMyZLEaDcPle7YYoS8BGkXDmU8fZueBiwifo5+oM8ooZ58IhT1gf3QEoRNSDzu74AOcMr8KCd34wkTiwz+kqJYpXSJAyjekV9o3VCf7KAGo/MvLCH5pIU2fn9vNylRXDVoxlnYDyrdB+ohDuJAgiLcdSjiPlhLVnkUUqIU9ouhWA5RP5V7nDQG2x6PgpIr7Xo0jMXGm2xWdambv8bYYTfVrjBt6w3XHzLCOlGRYpEGiRUHVFICmZpCBKMWqm5pZLpr45fjFJXMDJkugGQ000ODmUhCAW6YabkUv1RHJS05CjuSW2RZVbZZMlms5ZLBmrzCNovsF8XylECiA7NsLN20XqAqd5PtQVih8NiVUpFdIokpN+nvgLD5wlTJ5BJhyTujRTZHchhhQSj807YJmYXMOiOVMRnrBcIyCovaQsyqdFJGWJa00KLJi4+JsEbOMWEHZqlaummeUBWEFaZPXFmOUgDILS9N3kgVy/idx9xUKqMoqpRO0s3Yl0xgYkh5rrgYAWlLYrBOMg4JCxn3QR2TlzYjMGOo12IxwYLxUkULTz4hkwmbmSiLXk3fKTwLP4spomSWIWKRSO7AuJsSMIi0+X6rhf68Qyeclx4qM4AM8Y8aeE5kjFBuEg1LJlcJ6zmHOm3RvAPEE5kRYYuPQlhp0/EiYWtG2MxEI6wikLVEWOt4FjPCSsxPyYKwzNrLLXPCgqFpTLUsppITD10YE5anZVg0KrJNo51Sz3qcbNFAIin/3oaEHfgohDXiQH2RsKh2ZsGs7U/ymUr0VoJisN5LaiXCqg+TOezALE2Ubqph1E22246orTdc+QDybpF7Kj3swgPlmOMPzuTRKLE8HCGTuCJlwmrEmbpKKBhhdXmIZ16cXdgiCdkaEXbgA5cjzKo5osUFwqpR5LEARmKI03YPREy+w4TilLyugLE7OjEcd8niL2YZc+mmZHlRK3eT7UFYofDYlVKRXNqFH+XBLljh+I0NpHicLF67QhWGNRs+ISby0I5vQkRM5wWxtAV55lykVfKNH8UHjJihdIVUe4vtMmY7UQZ1KVgoFTHOwH2hX1PCmvLiKyJGNWNXhDZ7NjHEVcyyqnQzWSrW2R6EFQqPXU1SsOa8UmxB/f77y8u4Cy3tVZ3MtDte0ejTqxXjV1ePDxZXe+tmv5IDlWLzsDynfVJ7OIp5XF1q+vSqSyjtRoKwS5g5KjeeFJ1fgrDnMcwWPpqwx4/pnDJ241k3Qzlr5zZihD2H3xHtV+PAkT48TScI+3jog7AnMA/CngDvoGoQ9iBwVAvCngDvoGoQ9iBwVAvCngDvoGoQ9iBwVAvCngDvoGoQ9iBwVAvCngDvoGpfwt5wcz5/ee207AWn305Xfa1r55aTV9yCsKvgX9aQc9fFAzLoP/F3MafbxrYs2Z02KxL5Xp1Ze7F7rvtB2Bm0l1ecy9gkvHWKTASPFfONX1n9IGGzvt9rU8ptW0HYNrx6SHclrN1x2COsRRtzfgRhF4Gqqvzon2bXEMDDsLzJEBNX3iyQfoX1x6iBiN8KrmktiroNEIL4vVY3F0Awz3jRnB+nTvd8jx7h5jOzmbIu4YS1kty6b7oYjPfJoYdkNxpiBhwj7FpmX7a+cKA9RD6FPXqkWyMsSKGJrO43BUlBSTpBEbekpjukxXPSL/knHf0R7mSA+8HwEW7W28It+RJhs3x+mgBmsUMk06mEZ83hBHp2Ysh9ZbALJNstf3NALUqvIlvgfJWIquIoWa0SnwhB+45BFrUaKkUiILDaeAAAIABJREFUbdEs2aQXFAzIxUYOu3z6VHpSoVUNuorGb+tORlmnwbIgTDoWwg7kNc5jZSFlPilAriwkf6wGZewmWB9eTikf9tpJscDZyeBjzJzMWGKIDWdGWNUhl8ZFJlUPR1sjiinNmhbk56YVSHmEWxQ17suerCRIkgUR0OyZfApHHM5TAm3osRgLSYS1jp/sfgroHf9+OWGVMvKhXNYSOwosy4TNqXYCYUg2OpJzK4TNTLQRcyCfCcuNLKYYZoTFOM9xPQdwYOOU8gF/XVVKZrqavdrYyYyJIflykxE2FVcJSyUsGgZtkyVlH6NuIiykmghLeYWTNjJh5UlmFZLZle3kLEfRthGEbcOrh3QPwipvpGkeRLGZpwTiL0iUG82lv70LQ7J1w2phyl61oQP9CmGHj3CTnfLAIAphWSqEhW+NpxaDE1ZRn+y+hf6e6+8dYXHujQe0yRqlH2feONlC0YYzXrnyY7JLiD068UpNzLh0xTHbIsPMHhlNdhWExWlW6SrBQF67CVzrDK4QVtyEeCYsKvxSQW5ic+tySrnVWW/5Amdvy5faU7aPegBVqaqrRfZ3WExDpV87MvZRARUaC6mXc56JLbrZlVK2lke4oWfjpFmgK6uBtdEj3GIsvCdx+TGS+2hMr3x4By3c0Y4uOfijBp6p942E7Yl3oW5Pq2YLhOaz5me4uRhUEHYRlksrr+RJU+AXBpLG5SDsMCNvO8LyuBzLMQSGBHi37Tcl7MvAvDzCdjno8mffMv99mR4/OZAg7BUJ6ELYKwJ7f5tB2CtyGIS9AlXZDMJeAW0Q9gpUg7CXoRqEvQzaGGGvgDYIewWqshmEvQLaIOwVqAZhL0M1CHsZtDHCXgFtEPYKVGUzCHsFtEHYK1ANwl6GahD2MmhjhL0C2iDsFajKZhD2CmiDsFegGoS9BlW/g+oa419vNUbY7hT4T4z9X3e7YZAIBGH780CE7W82LBKBIGx/HnCIjQG2P66yGIS9AFgQ9gKrYZIIBGEv4MF/McBegKqZDMJeAW0MsFegKptvTlid38SqFoHLaPQ4w0HY2mR/gtzjeHWZp3cn7GXAfKDhjzgVDMJ+IDNXuhSEXQHmgdVxdtMAdhC2AayLRIOwDcAGYRvAukg0CNsAbBC2AayLRIOwDcAGYRvAukg0CNsAbBC2AayLRBcJy6+zjf2tpEpvwh5Lzkvpve3zluWa+TeJ8P7hJKqt9D7jVLnwt2gsNPKNyIvVo8o7Xi3r77X3+hqtkYlXLHzeZS175Tu/RFSWtV6OhIr4eCu9EXtcu16a86K8BV6B2JcVy6eOF0wVjYXGqjtA+HJve8F3tjAPLDe9z8ZaKt+kB/ORJmVFX+VMvVjr5Ziwc2PKeCthbY9Jrvl34j59ClRNQ7myvUNYE0xvPC5qg62FqBM0A6n325xg+W4dmHGsjKzDWcFaL0eEXRBS1hdSvwlTC2FHAQys1hB2c4i2by8NLGIzCDvG4xmlGWELW5oJO8+nTV8vJGz5nN0EvBrCbse10Drv4MTrOxQXhpV3CDvFOCPsKCkYg4wS1sufX42/oqEdljXA8XPdmPDecI6CP3d8i9iPtfgcLScWWOHGF3octOFrLjipYTVOsuys6sc1YQcNnELzG8tUhHvUwKoJyoFHAZd+Vpe8wiC0pEbHNykVgzyflF8Fl3QZHZf73T2ylSEMlxE2w4Z32v5owjLrlnpteUl8KZ8rJFEkJG7dwYc87rmklMXlQZsMiIA8GccXvyilr8Xp5JwWRUHtC9xStfOXe0RuNe/8pp0WZYTqgw0PUVNqHjlkxgzIbdJVEOqMmXeT/scaxnVvV/p4wqYhzhmFBE0Iy0HUuMrcK/8ps0NJDmzMbmqzLxmyJGWvH5R/8cVwymNlIOe2oVmKqDlxzuySedSEWf9+OGu0J40Ju6DrkWWDsGJLDj1VvOPfjyYsL+xkwuZ0TfmShCQpUqZEDiUTYVOb0YLwDQlLWnmZhPm9axJiIK8SVmTPjsXTTFi6kzprIKhWc6ERdkFXVTHCErnXW3KaU2iZlqxgdncJmznXmbA+MjKGPcKineOmLYWwqa4QFpZEUwtVY+hYVyo2V4gRNiH6Sn9nhLVBkSHikMzWTFgNUfym8XDcRDELGQtk0ZM9lOQIO2wrh27peeNghMUHvhnGgLCw6tHQvtEKAXB7sJ9pUyOs9BFxJizpKAsWqkU5040pgTB9zZXldBibzm1QgRalXiulXGfcogra7AdUsslOu6EBFvCUHXXGBFL7B9vGLJBl1Oa0UDX9F4NikxiHRkwJnHFlz/D9gLHDOVl4YxC+6KhPdXi3c7lCWNKbakZYBjfWpZpJxJSASLzeogSNw2KeMXVFJbZ+MImEjFisImW5ATbzmA2xLIRqEILXqmzYgyQFB7wft+GcSm5oiQv0eI1BG/YTGY/fsoaVc4kBw4yktOImVLS2FZzaF5JTwH59AdciuDMhODRA1MyMdSFqjmz/GVjFprTGVe9X0t77fmGniIeJTnUP+jsYFM97TGP6EUvVukHYI/D21fkQwpYJQTs89bpB2HZ0e2t8AmFvv6MZQRNETbpB2CZsLxF+HmFtHtmjU5ooHzTUpBuEPYhyR7XnEbZjJx5lKgj7KKTX/QRh17GZtQRhZ5A8vCII2wB5ELYBrItEg7ANwAZhG8C6SDQI2wBsELYBrItEg7ANwAZhG8C6SLQzYf0G/sZgb3iSofrnJtpe+t1002cfqvWxwp94v3jZzNN+Y2fCLt0yUhVE4y/c288Pzj22ys8tsCYI22FHW4a2uvZiwlaNm21kzTfWVPdxLlgV1lytG2Hnpr+m5izhzupPgR4f2m9VzNC9flNDa2U9NrPWWFlfF9bcWBB2jklrzVnCndWfxjsm7Lg0lU3lFsLm5xuT8pG/dWHNLV9DWB1m6YwbG3firEzcoWSRUr1qgJh3bKUmWR4265GlYcVge0l+0KzNs4Q7qJ+e18b9pQYSnwCnrfJINwq4XfaGR7157yzkTBSnZbxNlQd2Ph6OBKXHw/0pb9gxFSaQj5kbDOlZcj1KbplJj2S7SeFh97p66sBui0rngrCLO2CRUoXl0k1/ahJSY3AKeqLpzp674p5oafndYHtNWDOZxbnaNPiBVs2Zwob6wNL65jH99Cw373XW/c40I/YJPNGRPkVm3uV9l5iJUpZi42eu7bZppo5sJlFBLVIRFaxEqdhW49iaPSNLp7riYLIqyR+HHjnNJYo2LjLaqLMkzhiGSyKsYTBsydtUWeOz79J/Zu9RyNoAZbBdtdl4qjDt0qqPasEVC8f0pYX0cTLI3bAgLYqmBCTC0ncStToqTJ65FqSkhOVFe7ft4qIuAFSDdgYR1rwkNtsTN/RkwUDJ+KWihWXDurGfkq3L8wgrIFYJqwMIAN0gmTLW0N885tTpWKJqZFsDmdo8pl+0MKyiUDK5SlgStHDHtmxmMCCiyDYgrN3n6sSzB84HhFV+2Dh2KtsMSdVo9QHaxmCG7g1TLHbLpZu7opsCBT4TSzt4ilzHHh4pEgP5aBEeQMOzwS6KmQ6PGa6OFu7uTlg1SUErIAHgsVDCJ8lwkJ4PkgkU5AoByAPnYZAXDRmMDRUWth2rKMCyaVp8dsxkncWGtWTkIq3MSCq1/z2mn7WwwV6VuBRrSoAxw/c+F7U6Sw1wYdcMDo2wrF8kLI2YHJEdjrCEhVayU097GmHFU5OgKuy8NmEVoAVazjDVdRABZwrESTJcacGGEiDC8kjGkmq0Ih6WA7KSVYAPpwJqTAaIiV4dhZXQhKjm/9htdNZx46kHVBUJgRSKybRq7dcfumLgfLsu3j2F0miZlkeNFYVj+hYGKAH0GKBxhM+gjrmjkoPloiZBBSLvicCWmWS96hLE7AKb8G9GWNYNxk/a42LBIDQHi2I5CW9DWJ1BeQ+mOKlNpwzqsDqIlQjLgp1NiHLsOzaUAwcmZcmKCRztHPIn/DXi2hb5K/2yUg09yjXsW84KyiwPfEI+LdQ4sxzT14GAHYc6YsP5PzvInk0IS/MKfCBKMYL1C5UyVtjpvMwoJteCiFS5awhObPBpXepLjqux00E9Oazjq6mOHNJy4yIrjTpL4gp80MDOcVHkftTWMTc7FCG0YpW3pT3UcEAa0D8gw8XR0lSBYsasJFgGDbk192aYFdImVuaQ+VKeZMTywhhYjcUfSeYm8+DtsKEtSwYbfUlqqdz696A+Jy3oEv8odOEkPtDgoDPogx1jsqga2cvxM9e0ZU9523zKcUg24cgeOKdHysINjzmKXyVTQ7Wor3oc+jR5sIi0qRXUlYVmsGS1VWsuPzVjjMm7oHpCeMsyIeyoTWQCPfS2xcQnYw6hUE9VLZiUHHU/c+kIYRPa6EoZZGjWrb4aYQuUr7eVE9E9NMv4ebMzwvruk3Yj+rHtxMwJYU1+NMJyXIC0E5ZN2P99tTfCyhwdOqVhR/vL+girlmQW4lY2wipm6L/UCHs+addZeEPCOoPzqIoNHWFs8ARUY8Jam4hBGJO21MU540yhoJHHWYVG7Q0ZJ6cpLdGUjcY0IQXJTqYE6WxQ8nRbCGu2aSMICwhrlpyIGuEmGctsk8qisDOstIkUSrDRjwKY+xR/mD7pspZzSm02zFLSDYmwmAWkCQ/rHQychvkAKi9jwopj/g4emiNXNVwbYWlGWmVlgXFWh3cE/UAVk2WIqdrO3mBDrmfJSMHC6KHlrP4hp9cqpelVfy+FQOdsz0EnzfwI79eVOGoN5EAxMtFWaiOtuEAsCVqVjb9sYXOyKltwIzYOLFEG3DL2g+qOHmknw1whpNGKdVyoaD+4a4hlFd3ZVWHpmJR8+GrQp2F19fZZ/WpHnyCYiHG2Ly8Leq8ObgB0tu9n9TdC+7ymXvl8WdB7dXAj9Wf7flZ/I7TPa+qVz5cFvVcHN1J/tu+cZMRSjcBGJhqaziatwVWLqFBoUTgi+6J9P9KVoc6Hdsu7+Nm9G+Zxvv2hff/QbgVh8zW4OZXfuiYI+9bp2wj+QzP7od3yRH527zbYiqYP7fuHdisIG4Td3p9fs/Wzd8dtzD+07x/araYRNv1eukaAfNHU7t9cE2uuz3YrNedPFWwpfmhmP7RbnsnK3vkP/GvpLw9V7wiuGVip1z0uK22L1Xar1mLTvLKy73PF16750G456JW9q+KhbmbJN24tZXWzcUGhgrDpxhu7wSYI+7Hnkv0J6/cCLvAuVZWBONXs/N0nrJzKiowHYb+csLgJUDcF2giLKaKPkenWP9zaSgH80ZNJQIs3pHLUw2OquuMPdwamQTD93pqUIcUqv0+RW7pDUeKwiPtXSVje7ihGWivDUQ1X7pTNKCISENafRMKmhc7G5SWbXW5+19oP7ZanY7t35JrSLqJyDMPt16AMtVgFcoAX4BR5LGLyqW0Oc7zd1d7zZE9jy53EsrJV0ZQNpDJKO2YYj5FbA+tt4ZbGUClolfcGqaH1jofrRGrImj9Xnv8phudtb1zzod3yjGz3ToQVGQeMdCLY7fymPyQsDJMxNs4aifMQm01JWSGYBCnGnYMCA8PkZInQ+MfxdoOwdJ+0diYIxbIi+ZTVh3bL07PbOx89RTXqiA3kl22xHptqJi9ta0JYiQ8bTZmaspIpZgdxuZBhDtKSMlHZ4ZMuFYTlFIGGNpbt1g3F12760G456Du9w/hnFBQjtQJrprw6Q1hyDxNhvnRvbpiETcNzaq0kbAWpdvpeYeElRT60W471du/YWghL8uhcXFVqsK02wmrsdEXa5ysgRud2bLN2sHlwWLe6SsIWnq+yarvvq2qv3vCh3XLYN3tHbgwJm0hgh9rcmGQqpwRyWfzqyoP/RDU1zOG3HNdty3YZBGbRpZgsTtGbci67Sa4Sw6bYOzXqsgmmQv97p6CbYt1OGs650XsOeJTDa57TWwlRZcQxfWvWC3RNkCddnHGWFaPCOOqDp5RZhUUmbJYh1g0MGyfNByWh7eIYl3HBgo/T5gkyXr7jcSoGTmEzm+lntmS7s5b3rWCvsbxvB/Yi3+4arxBx0DIMcAWLC1ngNxewiJL94YxBW1xp0f6ulYdhSE7uTCAL0yPgQ8P2NDlfp55JmS4L46wLV36pOJjjoopePRrEvd03p75H9il/bIj93AF2cNFoP2Vi1gfleY/Q+4i8oIRGiheMq1dIDUlLB9h0DO4VwtPsNPT9aTE2O+YQ+8EDbMsIi8ks5rCaVjbD+JIKH0lYzoheEu1OQbV0Tl++2T6P6RTVY8y09P0xEfXwcvvoAbZlhO2B5kvZ2CGsZoOxehwCVeTYSVqVjXcV2un74zIVnoRAFY92klZl412Fdvr+2XPBl0taJdw7SXu5bvUMaKfvlQj2jOibbVXCvZO0j0Zwp++VCH40RA/sXCXcO0l7YMCPd7XT90oEHx/3Z3qshHsnaddjc+fFshY3W9/wbrGz+5NdW1htrvtL6z6LYjb9ylNqXn2rEu4mrlzQZ94QMLiDsMZDt5B3DNUgqA+8zYPWDebz6kmN/9Q9qT1WnAa7+PsOfgXbv4yuWzSqgij3eEC8rssbdqc9WBHdSdqKVlV1VT4mA8O24c4/Cu/0fYog7gTCR0bxvwS5MtrjHp0is7aFrzWsNbXXz+myEALupqvwuaC4GA/ujQMa3oQfQM/2ptLAWTeLfVHl8A7CdakmwnYOdsfcBMFUHA1So0Lp5YQXA4q7DBM9J1kx0LiFoXOmUVMzVZoHOpUo5UnXJ10ucrVbC11YUp13a0lqUgeoy8PUHEh53ddv6/OjDm8KxP4HSRI33RaIA5Ur4nZZJE1SDAHzWIFlj43rGW9Weyes1U3aF2mgYSM41jUHukkPVNzp+xjBkpA0qtDGJGvJSxFmTf4SemqGHjY7EnYJgdlQsO9vIdAS8nSrdF04jrs8Fa4oj+FeVdhJ2qIe9ufBw9RijrxpldIpYvLWIfSEnEUjjxuuSLLJtcHKTW5BCeTE/bJ8Vlz3aKvFkyvE7alxbvJWWBxX8QKEg2ApgMUeqnKMYMl/6iGFStZGdkYBDW7ZTUIyvU+gJL77dxyqiY9iYNWuv4VANzznrpujmbsN1cWmpT4sCO4kbUEDVQqODqQtTwzfng9wFRtJrRtMdtbRsClxSooHWgkui9rLaDZiUg72DXGthRZNWl2eS9Fk9bLT9xGC9rKDZBp7oPeMx4X7HXeZY8OAoNXUWSGCjjF4Przh+tjDUIXQsT/TANrKbDjNNPkGCAFx54UUSEEWOzyM//pRyq2pSds4bGE/dy/T067klA4hw2iSew4PGi4UlfQxV5dzDhvyas7QF4w62MZs3h8/0Za67K5H8dER9nDpcGX20Gv3bWa5lkgprm1579aal+tTPuiVC6S40lMxafwZEhbt1s0smjFQBoxvbBRIaQ014yNNM+cKlmuvtjkHvSev2K5fZG5dXMGmZgWQCtpRRTWuNFm3/kNA2HBlHAYPys5mvUtCQoh66o306IBRDSttGFAtjlU4b0JftXNT2Ja8K9BBKaTmLMUNhU1nC+5zm49ERJUBFu4zDKeWhFm0ZAggZXMYHx+J4tMkGRVT1vWFEb7JKg1uLopgU2KhUe7pr2gzapKSAWoZETaNSIpRq7Tbsot+eUQGpW+JpXEDg55GhHUEH0hYGwq9b0YqDVVYZRBKVkQIdkU9YexKr3pOG5JU39gTteUzbiUdlWQLF9vgWnLW9WxJIoZ1kk1tOS7JZCwZtuJju9wnT+aAbclJcppMmWlvpSEuibDYZLtkUwzas2BFHdZKnShFWdAqqZSaxa0UymLjWqV5ZnApaG6SeuUi3pCwRDvr+A7qNDXCZpo6Va0M9wRDgNCTIcO1H0BRaXU5u2sRL9bv9H2EYDlkmylMtNl3rrKZkgZtoc92TJdQQQpqalfoYsykTb3JXZIfowLl3LRF4esxYQ2SQVxZihsyRyPF/Zyw1nUdFSWfumjp8UdLU9TmT3FRL8maVxx/c9QmwqIoP+nJCG5TXlqPzS9JLNSV4KRu9DLqZekRYRFk1hH2xEi958oPYrRliPgaZYKhnrDbhozWkuCW1eXsZvc1Gwp+XXCEYD7QSp7RWCbTBqvVxbJijIpT0pkVWVKhi7CjNnaYvRaqELa+yRicrRDWuyJZg8SRoTdfHKpkpLhPngqZreva3aybbsIhyV1XtdnN+Z2gCuBgf4AK/T+asIrbV74LAdgUiHUOgabHrpEBztyRlqxIYeu20FKfuGWIaC0cuML5Ds4lMKvAURMTOK93pqjr5fhpvivXE2inWhZLqi0le5B4QFjZQTwlK9wSeUQ7EVZCiZmSVEdEWAuEmbSFB1L3lzaEnuVa0plk0kjByadBYqRIFvlX/gopF9wrI4zNTOhE07LkdtyPIlBDsasusd1kPD52mC1qNRHrhNe7Xf5JfRhULW3K91LDRh04mq66IpIEnf6mjFAbLZREgBxtgQ84nBRx9YryOOjYBNaOnZJn6C6mc95fSCFtJs6um4a990Alyh/qx0YfGf/YZiqilpsICj1j79AVTE0QH9OMPROqXFHIDjOgEc65uU7woN1nM9LhIGR0oi5ds1UcTeShVToTAPZeJxZ8ybHRgVhr/lO7/hoLCSRsc4Vad08t/keIit36Ln+2kgGTgBJD9GiwYZEbG2EFKSnx6adrVBZoZE+hSIOWbEl9SOWVv4zzW5edvk8R5J5iOxb3POSUrBK9ULQc6lAC0lCV+xIE0UBpksSEiDYK/JlUbMeKbTkYSOlMgPqqhJwSDCllSobHObO9F554FUGhYDvtHUnUdnSOEdirSMzkPnuSQ/NCIRpQD62btIOtm/G1jFToH/c3BqfVMD6ONYhJGMhrQiwJ468v3rtUXPubcVoT+OD6nb5XIvgSAHmsA5KK4y8RW2UQlXDvJK3S2XuK7fS9EsHX6DuHy9GoOuDua0S4F0Ul3DtJ2/Py1u07fa9E8DUgsOlGYWmeEr9GeBVRVMK9k7QKR+8rstP3SgRfpP8aYgthbcR9kdiqwqiEeydpVa7eVWin75UIvk7vdc3ldcJpjKQS7p2kNTp9L/Gdvlci+F59ft1oK+HeSdrr9q9DZDt9r0SwQyBhAghUwr2TtI+GcqfvlQh+NEQP7Fwl3DtJe2DAj3e10/dKBB8f92d6rIR7J2mfiY33aqfvlQh+NEQP7Fwl3DtJe2DAcuU/Kz7G7U7fKxGcxGo/gHpl69XQBfmMiN25qWK5iXPiXMWssdRYbgFYbPXK9FPvuszK8+2uMAhwO5qBg0q4d5I2MPiIzUFHH+Bup++VCI4CHT37jFs+dlyMdHVPwaQGt/+kGtqyW2s2z0/wS37SWPxbLtUuNqsSFratDJ7oWbSStfeiGWhnnUHdwuZ27xYULq0qt4dc6saN7/S9EsFRpJPr9YVuI6nVwlx+MuYOi/oxdm6q6iaCzXEv3T4zt11qJh0tDZOtqmikUwn3TtIm7uuKvHMn3WrEmwqBrN+4hISkIu/p0R1NtOlP6PFeIJR4dxL+4n4g7qC8AemKKOFnuzuVCI6MlDzKeGvgc/khQwlUiVlQjZxboYYi20eymmGjdHQhhEFVTTQmXgl3AWDg5eymbsLTDWfsuyIx5g2L6Y40OFMa1MY9nyEpc9DhPeBehT+dl52+VyI4Cirn0ag3J+BIelaYyw8YSulS1I4/M4CKGopsU3K71Xzmji6FMKiricYt7qTDjdZJDSKo2bQomXAOA0Y+Dp2a8ZeiOs2VbUBcUDEkezZYBy7WaaPGc5PMTt+rCYtg7XbQymefcUqj4wvnuFLEc+J2nyjuUeXtqoaU/IOhqEH/3YOBgzUIy0OPQZS6jSOTzRrTQ+W8rdXuw+WxTXfqwrqOZD7Bljfqw6AObOgEPr7iFr2OGXJX/G4aGrNdE0SVjql2JLVYcUeuR+PGtv9Uwk3n3RcjrI0Gvziuw0HCZVi0zPChl4yPMpPiMYgA+PRW5CRw8u9O3ysRRN8Yh0nnnljndZM0uzF+Nps1xlTI84kKGUAvTR5FVvlxito0KxiTWTokaOYVIlrUyirbYDVLMsYCcTQ1lmSwzIsgmCIZ2aOYhUNt/HfiJ2nUuFGZL3O4QYCU2VusK3tSJd5dyQYBywBR4/8BYRlUKVqPhu8Us0wmT0ZYgk6c+i87Vmu9mpz1WV1ipKKM9xV+5Cob1B7IknNGO+SozEmmBl2zk9uGZklYlRO/7CEDBuJcgV3boiDEx4SVeBlLS4gJd9sdyE8LZ07RlJOBLqNSvwwQWye5rb8ZnS0hR3JbpL21xMqeFIZqqxQNTKKqDnOD2NuAio5n4MoQ3B7Lhoa8rrdXIpjCNBYqX7A5ZBb8jF1JlBJOWCkRNC8TBfCE/Tc7q4QVdNm4AKUdbahnhjE2farhDBbH6a3oqkp9zrgPEGA4NCKjNMeYS0m7AovmmZatL0aFpLX1t9jekio+N6UaGy1KpkX/c0d0cDdM1F91EyscHu0JPbTxyUV/JM+AI5AlAY2RbIpnvJelKhFMWbQUHiIscdBh1wlL4IhKBWFBaGmrCwpBxMp1FhVbAXKG0pBldoqg0LDkiLtQKQgonFHFmLBUNgMCQLuCyu9CWASrq3k8YeAs3abhWKeicpFWbBaGdsaAgnXe0PaH8gh630VO1k2WdK3LsMXlLOQ1wqo1E4E0YSqdoGoclHGGA4khYaEp2eHAba4cK4WoSERYswiJRFh6lIWEKRUMbql6L2TB6cyeic8pnDwlQDTJrilDMu0DmbDWt3chrPfjtf8oq+sh1hLW5jALzz77G+NoB9TAOX3yJR5wNUwqKaByYpwuAfiUAJpqGxLWhkedArlhXWCgOgYAO2RlYqXnrS1YhKRghl20oGgpExZm7GBnXcCj6fJA1TFhC5Kqt1hlPAjruenxp8C8aG2YzUWBVIm8Lj/7bMOW7ICxlksq5aexfQgjnfVQNQkh5lMcBQ5lvLIkJa51vSCZtfjtOSYaAAAYHElEQVSHvYBWmvrakOej9B3juT1vrQqYcV0bpWmeA7qdK/j1LlXSIDY8HO0J6ke2KykExAXRAgrWaI1tj8aEdtYe0o6Uu6LpL1y2walEcNvIYqsGs8WWA5UaKg/oUWVI9oMmpIaXFfDtPKfMndM+E71GhToDp3pY5+K41HUIdiWsppkHe9kLf99pTpm7Du5dcDhWD441G/KVYhsWLmy6DsGehD0zwOaLsCdRTGk8s+/YNOJkIFerg9hXuzhh/7rguhEWAB4mLKaqvdBHFHgdd/351WJSukWzaL1PZfVI3Mddo5WrECRTOlHl1C8q3XYbnGth/rp291gt6r0wqfV3QI6J65S5A953VRRerB6HwG5Gni0gKOomu88O9Z38v/AY8E4wzmP1XXfeEDWnEAjCnoJvXdkJG0PsOkSHWoKwh2CrUkrXQ6qEQ6gOgSBsHU5HpIKwR1Db0QnC7gB0ojkIewK8NdUg7Boy5+uDsOcxnFkIws4g6VYRhO0GZTEUhC1Y9N4KwvZGFPaCsBeA6iaDsBdgG4S9ANQg7IWgXmf66y3HCHsBBWKEvQBUNxmEvQDbIOwFoAZhLwT1OtNfbzlG2AsoECPsBaC6ySDsBdgGYS8ANQh7IajXmf56yzHCXkCBGGEvANVNBmEvwDYIewGoQdgLQb3O9NdbjhH2AgrECHsBqG4yCHsBtkHYC0ANwl4I6nWmv95yjLAXUCBG2AtAdZNB2AuwDcJeAGoQ9hpQb//9998P/sez89fgGyNsb1zj7SS9ER3ZC8KO4OhQ0Guvf/7XwVKYWEAgCLsAyrkqDbHnTIT2KgJB2FVojjZwiI0B9ih6e3pB2D2E2ttB2Hal0KhDIAhbh1OL1C0G2Ba42mSDsG14VUnHAFsF0yGhIOwh2DaU9D76+18bEtF0AoEg7AnwZqp//cNLBP+7/Yf1v3/PmqPiPAJB2PMYuoXbv0OaOnW7WQ9DhkAQtgsTNKb+TCYCf3O47filmC6RvruRIOz5DG4RUzPaf2JGex5ltxCEPQulDa5/r3HyL37WOIbZsyhn/SBshuLIhgbX3TuzYpg9gu2yThB2GZeaWjuvqpHElwpHZ2R1OiG1gEAQdgGUiiqfCFRIZhG/5pXLsXEEgSDsAdSO/zZgmqe+uX0g3k9SCcI2ZvNvHtvP3CygycHPP41uQ9wRCMK2UOF/JOs/53/CEut3z9VaIvsa2SBsbao7X5/qbK62F28vF4StSmHd5asqUwMhG7DXruAOBGMzIxCEzVCsbhivVptPNWhy8G88YlsNYhB2G6oDl6+2Dc5bfXIQpJ1Ds1AThF0AxavswulDzo10uevn/NncYmdg3Op/PyDbH9CFxSSdrrSrT498mPC6mUdm7Ac8ChGEXaL2s86Grjm3+3PDDTjqZhB2KdtvXrd1vel2fcbNfd/Jwe33/nNnWq4P//Lkxwg7gnjhpB33BuKQ+ouc/8mH1pHOkYLo44rDbavqPTm4/f75UaJF2J/f2xtPZoOwhW/LPGGSdUTFaTxI22UZm7kvXCDo+lsYCGtdUF94J8PvOIIunXqMkSCs4YwBFMvSXSlkk00Bb70IO2XoMntscjB57OYQK0hY9UGElYl04eCQvWcqBWH//Nm/fJXS22eETdZy3tfN/q/L87ciLN6gxDmsj62zGHIwL77x9YSturM6pRfMwjhs5y849Z7klpNcVnHSq3HZJ4uY+pItf3587ihrVunwTy2NDLfcJz5SzAURFocHRhyEzbC84QZYA/7t/5hfCAsiqkCKpVrvOMmnY683aYIhftzRhPMe1BtljPGUdxOLcxE3yz8nL3cZYeFcUWveM4l94OvFN30Xf/EorwjPJgJLs9a5t5ReDaos/JJzkyHWiz6EgYyyQ2lrYfkGat6NnrLpp+s2aM/9DmrO/EbshPVdTXFZcAP777L5tYTV4Fr7/PWMsDpFS7Wea1jkVqKxX7NlparsRccgq5/bmfSAvHuUOT7MJsJqX7ox5Q+4oLzXnYPtX0nYrd8GFnFM1BTzRMHhxVObWHB6yKYkO5gsOmHd9FHCQn3nkfLF2BlRismixt4Gzr7p8sahH0T8Hz2/2paxnHCOoSykYXQSA2eJSTYd7ZO0D2rjKQFOxGgi6UzMLRZ1tfh7X9z1XYS1Eap2IlD4kgiVR9ibZp3DYRasgzyGVWtCIV1NSPSWEfDz1xson+YNdVPpFNA3P3/7RYS1I/f+JYFEi8HfRFj99RWOs+NhmkWejKHB5wCoECNNPc0cfDw1M2aC3G1cTvSm0dNriU9Af63g+kVzakwSN8gpTQa5woCoK6ujAEFTQ9OHUI6sqqCGiMnLW1hsPkFaWzldGx1ZqyjoePFtkwOHrAKe9xWp+m3gkd27cwZgw67cHhhgU7jnf1VIlt7k78cT9iUPnTZcJ4r82rwgFVv/6nJXxa8frXZfU/6jCfv3y44/muo6I9pOuBZpdPRkctHYa1d+LmHt8s+5wevC3HFi29W8Xa77vX348qmEtZ+FOgxeXUl1rTE7OeSe8MnLyw5Bp5Nrx8kvmdxpB7XfeU8DFwaeh8DLXSC4BAqbqn/u0HMJaC9r9NQl2JftVQ7sKy/G5t5/6sarXdvCTwZdDt+v1q9P5c8z+nVmJNKF/oag7Q6B8Z0GQ3X8yEWqDasObL/sNbsDfQmVRQSOzvUauQUy4qfblRu6GJio7L/TLga6W/kdc/NdGL5A4CFn037vyxKc5UKbbqReEtmr6/c07Z6naH8NBOz9A4du26rrwAZhyzwgP0pTZ9OlbId75Cu/msIL4YsQsEPqVReC1gk7mFwMNms7ufymj1rtkHtvBOofQtSLqW73wV2AvE0bB3dwDudOd1sBDVZzJxgQ9v6bbuimBia2N99LWvlqP4P0fefWeyfwG6OvvCzERwR4LE/Hcz0zC8KKi6Lzr/ibbmkphOX1BZI4aaiFSLfx1X5ovuqA8I2Zf9c+1/2qIMKCLumMSdNPURH91jUsUZdiYmQhrCgOciaNRNimt7HF4Pqu9Lombhtmtw62IixXafFHBex6K0mZnj/QFa0yJeAPBFw4omp8TIStH2A1uH7JDREJ3vi7h4DOwdY/9iaugnyZsnzHgGhKw4Ww9/tkhE38FKMplyrqCKtXGJ75iB3Di+VDEdh4waUzdfhzqobUyQjLeawYqRUb00NchEwaibAVGNolga2Bv8JIiHw0Amsv2CBhOX9NQ6zmsuDjlLA46o8J6zOFX5v9isFVAK4FUqUcQl+FwNKvCpqEAoV0t7vO+RNhxVoxE/NUzBvSMOtstils0sB7taDHKe06qBtD/bpStHwxAmLM4GNv4tzdPxNAXPgOeV0RAD1145VOrjDg3jXoSp6nchyJTc01fATeIGz8NvDFxDvRdT8mP/bKZ1y+OpGxUMW1Uy4POuuxC8IP+YhdpPaDEdANif9c3cGdq2pXuw/7H4XA1T+LaiBvfz/dR2EcnemLAE/+L5kcxOWrvokKawWB/qfv04sRxVdsBQI9EOh5gXTpcm+PGMNGIDBEwI7hJ+9FWf+I3dBVbAcCfRA49bG3uHzVJwlhpQ2BY49Yx7OubSiHdE8EWi936fLVyclEz/jD1vchUP1bav3zY98HYvT4sQjs/xZ27RO6j+1tePsEBDQ50K1Z897E71hzTKLm6QjoqurC91yOfMTu6Z2JAL4CgdnztzbBjZsEviL7b9rJciGgbL1pVyLsL0HA7hTErTLx+qsvyfgHdPOfR931/QFYRRdeAYGNJwxfIbyIIRAYI9BGWMx37Q0d/lD42FaUAoHLEWgjLB6s1YsO8Czt5ZGFg0BgAYFW4vlbCvKbkBZMRlUgcB0CrYS192rgDbSxBALPQKCZsHoHl2nx7TGI+X6ztx49I/zw+W0INBOWQ6yNr1TNb0b6Ntyiv09CoJ2wuEAgwuodXBxi9SqkJ4Ufbr8NgXbCYlS1Fx6neay9Ve7bgIv+PgeBE4Qtqvh59znRh9evQ+AA03yEHX686/CX574O7+jwSQSOExZTA7z9GPqcGqTX0Z6MJtQDgR0E2gmbTrp4iUBTAb5qNs1nd7xFcyBwEoF2wp50GOqBwBkEgrBn0AvdhyMQhH045OHwMAKchGI5rB+KgcBDETC+BmEfCno4O46AHvmOR7qOAxiaD0YgZgQPBjzcnUOAQ2w8M3sOw9B+JAJxyvVItMPXaQT+FwPsaQzDwCMRiEsEj0T7hXz5FaL48ygEXij3bxlKXH5/aNoC7rNwB4JnEWzSD7ib4FoQDgQXQLmuKuA+i20geBbBJv2AuwmuBeFAcAGU66oC7rPY7iN4e8gVpN1nVfR09lpvS4y7drKJekmq+Ku5svZ8YzPAJL4Pd5KMv8sILCOId6fh45e/v7/4vyyxbO14bXpZ25qFX3/94GL7IMY9O0W/XhJ01atiiu7C1maAWf4xYGZ3H7ixjCAfdbKnS3/7vc5HbwWohHA+oG0RVi9yqbS8LDb3N5Erh5klUT3PWPN82DLcE19R3EBgGUEmxQh770ZYvMqqelkY0K4lbOHjSoxFoGxlUT3LuBlgEl2GO7XG330E1hFMz+8vkGff7Fyi5RUAS68d3uTDei/mgSzV7Otnmi6JKrbNAJPTJe3UFn9rEFhHcEDYdG+Uv/bP7HJ6i0HzxkRxhYkkiEauSdxkvSi5283GWEyO8ZYgMeB+v0kfKjcYkapkf1wWz2SbG70JiyWT116k1Q02Unx8gpvqDMaP3PefO5yhwd5YyA2K30eSaKO/uxlXJ6DiRcR1K5PkJHpP9gAGQoI2VqlXHuQC/tbthYaoqkRgHcFCWGUD9sixLJ8LGlm4IlnwqD82779ZVvySEqlkC4XJTp91iFsimlkZesl2jLB0CtJSHRtaUadEpTdjSCpNNeHnlsLxjtg1BXqkJM0Z/2WXtXjPIebuuQihBIaLqqheoQ0KOQYaNUUFodbhqugMa2O7HoF1BFOOlEyK5df+0XpqTdlCyiRoLCqyIoflF7m0xRgKi9owthlhk+Ec1diNldiYCWuSWd4IS7JkwpJMHnpyaQEYNUlnC51aCoaxYMuL7oElLgaHrFv4qDPCirVoSIoSn6xKoJOGKFYisI5g4komLI/jftBL7KSTnK0hYbPsKmFp3jIuRyuENZvJjZUov0NYcscXhefhJJcDwpqk99H754RVibMUWtKKGyZqhE2VGQL1yPRSG3XKsg53kYmtLQTWEZwTdkADTyMt52wZnUSlP/cku0pYNuwTtoRHN1YaE1aOBmIcHcnP1GkjbArHTKhRtIQkm4yFWaWMsKiSQBNhk52FvyWuhcaoqkBgHcE5YTMJYLfoKaFcjQibZLcJKx7J0coIO3ZjpTFhjXzJnaYECi/VFEIiQrZgQmuE1BodgaQRVhWQGbbz7IwwJnMuqsCNymyUYbeeQqDWbCn9mTVFRRUC6wjOCOvn52bWCkyjLEwJm2VXCUuOmHONxiuEHbgBH+zSmMnDMyO0EbL0gnbseO3dF5k8HDaIamxLktQ1wrI3VHbCetFsq8D2gWiumxBW9dkPlfJSAs1VsdGEwDqCumgFW5LwFYYjG5dY/aPcgTb8GRcDVyrKP5olK9pr9XNPu4AZo5hlWlsgykD2p8i6GykZWySP61Q3XOQSY3HJIYdFwkmAKyzSY7Qmg4tPfsWM8xFKUgBX2rCWEGvQogZU6C8GZUSvyiQKPuZpD1p5IUKylJKdFJBppbVFk0rxtx2BVQRz9pg1FmBb16KSj/zjOa95err5XRYb81yWRVzEpHZR5nVYH4DQxhSjjfwvskZ+unI3FIAkBI04HDPtZZm8Rpr4KjtgEi6+epjU42byLglUFUkJmj+FZS2sTVGCzmVgRi3bcu9Z4I4nR+4tKapttLJgRlVRaELgGQg655ri7CUstulSVi+LTXaeAXdTgC8v/AwEn0jYqnsAL0zaM+C+sDtPMP0MBJ9JWEw3b/g19wlIy+Uz4H5WX6/x+3gEfUp7TXf2rcL90+jK87H9CENiC4FAcAud7m0B91lIA8GzCDbpB9xNcC0IB4ILoFxXFXCfxTYQPItgk37A3QTXgnAguADKdVUB91ls3xfB9OvWKgK6jWGtdbNxTel8/fvCfb7vfSy8L4J7V3P5k+3qstm4qnW+YSum89a/wcKTELQbAvYArpMyK3PZcj/Cgp8n9ftJbhcAeNeqJyG4MfgNkKyTMoW5bBB2AOXHbD6HsHVe66Scr0HYj+HkZkdaSLFpqKXRnpXGeY/fAauHw3GPIO/sw++m/li1P1ENw/5gOH9S1TPXvNeUt7dyJmoqRRYt/mC4jbDpwXB11O7xHT0Y3hL3edmnwH0+7Bey8BwExSWe5ut3fXIPN5SCjzp311jJUjmmWxsb+N9u7qY63ifgxYEspXhGZk6IdS7pxll7YmE+IlPy6uU5cF/dq0fafw6CY8Ia2Yy7JDH7z7gGJOTgShY6V1UUYSWL1UAWpV++2cKcSCAb006CNtln04OX58D94E5e6u45CCZ62X37VtJlKqz8mYDMMXZfbTYBUJGcthFWRaySxbKhLasmzd0JXzCTTXDjsctz4H5sH6/19hwEM3s0rHpJLPRpgTpt9dwUYcFkHxgV9AphS4eobqURYX2QFm2vxXbBeoluoTGqKhB4DoKiogjKg7sTE6wkCf03qHRMVx+csPmZa6lmCZYyub1DPgUOwlZw4K1EnkdYjXSDETY/52chgYWZhDbCsmhV5PXalMAfDHc2lwfDfWBFvU2WyfLHL8+B+/H9vM7jcxDUY9X2uj88qe0sTA9gY66KBV22h6/ZdxUz0XwWigsBFv1U1h8Ml1mtRE6441sF+Tg6X1kn0l+H64rl58C9EsxbVj8JQfKIj4fzuhTpiYHPT7aIIh74FpjGZGyOHwzn+JpOzXgtt1zEktbgwXATtF9t4Q6+KKGzNxp5/PIkuB/f0cs8vg6CxlG+S3C+aA47r36/mteB+/2ws4hfBsHNB7CDsO/Kr+5xvw5hMS9YfQA7CNs98e9q8GUIq6klL3LNF52FzavfseaF4H5H+BAzz3hieSACb8qTCPskAnaKdtJIqAcCj0IgCPsopMNPFwSCsF1gDCOPQiAI+yikw08XBIKwXWAMI49CIAj7KKTDTxcEgrBdYAwjj0IgCPsopMNPFwSCsF1gDCOPQiAI+yikw08XBIKwXWAMI49CIAj7KKTDTxcEgrBdYAwjj0IgCPsopMNPFwSCsF1gDCOPQiAI+yikw08XBIKwXWAMIw9BwB8QeIivcBIInEYgCHsawjDwUATE2Id6DGeBwAkEgrAnwAvVJyAAxj7Ba7gMBA4iEIQ9CFyoPQmBGGCfBHy4XUXg7/80VW1e/fvPX6s2oyEQuAiBf5qJOlR4zss0L4IizL4+An/pg11H4+TLY2OUPYpe6LUjAMK1Kw018P64v4fl2A4ELkTg359/T1v/N8bY0xiGgToE/tdldDw7SNfFGlKBwJ+ff7qA0GGY7hJHGPlwBH47Hcz/PTkP/nCYo3u9EOg2Mv78r1dIYScQWEXgn24D43/dLK0GGw2BQLcBFu/Dj0tbwaerEfir4ycK40LB1dkK+/gKYj8Q7Puy/eyFpUBghsDPf7Oq4xUdR+vjQYTmRyNwZN65/HkvwNTpiu5HAx6dO4XAX6szAtxfgE8l3uZThvQp5QW/MYldACWqeiKwPu3kN7i5zBm9rtPvElnPPoatD0JgnWKJsPPOrhP27zm75+pREwgcR2D9Yv8Rwt6CsMdTEZo1CKzfAOCEJQUxm8XEVadaP7/cXLO8PiNe04j6QKAJgXXygbBaaI5SmgjoutW6zsKEtymaEA4EdhCoGmH/GE+dtEbdRbsxwi7CEpX9ENidw9pEgA8ZYpS1a1zrJ10xh+2XmbC0iEDdVYI0wtpkYJ2wcZVgEeSo7IfAOvnyVQKMrImweyPsOv37RRyWvhqB9VlnIuwN04FEWJ19bcxhN07Hvhrl6Hw/BFbvJfCfZjkE33hJy1eo/rUrXAsxxL0EC6BEVVcE4m6trnCGsasRmN/cctzj+oT4uM3QDARGCPQ8sV+/RjZyGYVA4AQCHZ91jSnsiTyEaiUC/c7s42eDSshD7AwCf61eJ2i12o/6rZ5D/psQ6MWzOOX6JtY8s6+dpp4dX3DwTDTC98sjEG8vfPkURYAjBOL9sCM4ovDyCOD31nMx4saDeE3ROQhDuwWB+MZBC1oh+wIIxFdkXiAJEUILAvGdrha0QjYQCAQCgUAgEKhC4P9gybU07e7+3AAAAABJRU5ErkJggg==;" vertex="1" parent="1">
          <mxGeometry x="650" y="73.76" width="433.91" height="412.47" as="geometry" />
        </mxCell>
        <mxCell id="4jUlqWk6TONZdT830c8g-23" value="" style="edgeStyle=orthogonalEdgeStyle;rounded=0;orthogonalLoop=1;jettySize=auto;html=1;" edge="1" parent="1" source="4jUlqWk6TONZdT830c8g-2" target="4jUlqWk6TONZdT830c8g-5">
          <mxGeometry relative="1" as="geometry" />
        </mxCell>
        <mxCell id="4jUlqWk6TONZdT830c8g-2" value="Start&amp;nbsp;" style="ellipse;whiteSpace=wrap;html=1;" vertex="1" parent="1">
          <mxGeometry x="359" y="1743" width="80" height="50" as="geometry" />
        </mxCell>
        <mxCell id="4jUlqWk6TONZdT830c8g-20" style="edgeStyle=orthogonalEdgeStyle;rounded=0;orthogonalLoop=1;jettySize=auto;html=1;exitX=0.5;exitY=1;exitDx=0;exitDy=0;entryX=0.5;entryY=0;entryDx=0;entryDy=0;" edge="1" parent="1" source="4jUlqWk6TONZdT830c8g-5" target="4jUlqWk6TONZdT830c8g-6">
          <mxGeometry relative="1" as="geometry" />
        </mxCell>
        <mxCell id="4jUlqWk6TONZdT830c8g-5" value="Group reference PCD into voxels and compute ND Transformation Parameters" style="rounded=1;whiteSpace=wrap;html=1;" vertex="1" parent="1">
          <mxGeometry x="324" y="1823" width="150" height="60" as="geometry" />
        </mxCell>
        <mxCell id="4jUlqWk6TONZdT830c8g-21" style="edgeStyle=orthogonalEdgeStyle;rounded=0;orthogonalLoop=1;jettySize=auto;html=1;exitX=0.5;exitY=1;exitDx=0;exitDy=0;entryX=0.5;entryY=0;entryDx=0;entryDy=0;" edge="1" parent="1" source="4jUlqWk6TONZdT830c8g-6" target="4jUlqWk6TONZdT830c8g-7">
          <mxGeometry relative="1" as="geometry" />
        </mxCell>
        <mxCell id="4jUlqWk6TONZdT830c8g-6" value="Set the initialization parameter for ND Transformation&amp;nbsp;" style="rounded=1;whiteSpace=wrap;html=1;" vertex="1" parent="1">
          <mxGeometry x="324" y="1923" width="150" height="60" as="geometry" />
        </mxCell>
        <mxCell id="4jUlqWk6TONZdT830c8g-22" style="edgeStyle=orthogonalEdgeStyle;rounded=0;orthogonalLoop=1;jettySize=auto;html=1;exitX=0.5;exitY=1;exitDx=0;exitDy=0;entryX=0.5;entryY=0;entryDx=0;entryDy=0;" edge="1" parent="1" source="4jUlqWk6TONZdT830c8g-7" target="4jUlqWk6TONZdT830c8g-8">
          <mxGeometry relative="1" as="geometry" />
        </mxCell>
        <mxCell id="4jUlqWk6TONZdT830c8g-7" value="Group reference PCD into voxels&amp;nbsp;" style="rounded=1;whiteSpace=wrap;html=1;" vertex="1" parent="1">
          <mxGeometry x="324" y="2013" width="150" height="60" as="geometry" />
        </mxCell>
        <mxCell id="4jUlqWk6TONZdT830c8g-24" value="" style="edgeStyle=orthogonalEdgeStyle;rounded=0;orthogonalLoop=1;jettySize=auto;html=1;" edge="1" parent="1" source="4jUlqWk6TONZdT830c8g-8" target="4jUlqWk6TONZdT830c8g-9">
          <mxGeometry relative="1" as="geometry" />
        </mxCell>
        <mxCell id="4jUlqWk6TONZdT830c8g-8" value="Map the input PCD with its corresponding voxel and compute the ND transformation Parameters&amp;nbsp;" style="rounded=1;whiteSpace=wrap;html=1;" vertex="1" parent="1">
          <mxGeometry x="324" y="2123" width="150" height="60" as="geometry" />
        </mxCell>
        <mxCell id="4jUlqWk6TONZdT830c8g-25" value="" style="edgeStyle=orthogonalEdgeStyle;rounded=0;orthogonalLoop=1;jettySize=auto;html=1;" edge="1" parent="1" source="4jUlqWk6TONZdT830c8g-9" target="4jUlqWk6TONZdT830c8g-10">
          <mxGeometry relative="1" as="geometry" />
        </mxCell>
        <mxCell id="4jUlqWk6TONZdT830c8g-9" value="Calculate the score = sum of the PDF of each grid or voxel" style="rounded=1;whiteSpace=wrap;html=1;" vertex="1" parent="1">
          <mxGeometry x="324" y="2223" width="150" height="60" as="geometry" />
        </mxCell>
        <mxCell id="4jUlqWk6TONZdT830c8g-14" value="No" style="edgeStyle=orthogonalEdgeStyle;rounded=0;orthogonalLoop=1;jettySize=auto;html=1;exitX=1;exitY=0.5;exitDx=0;exitDy=0;entryX=0.5;entryY=1;entryDx=0;entryDy=0;" edge="1" parent="1" source="4jUlqWk6TONZdT830c8g-10" target="4jUlqWk6TONZdT830c8g-13">
          <mxGeometry x="-0.8584" relative="1" as="geometry">
            <mxPoint as="offset" />
          </mxGeometry>
        </mxCell>
        <mxCell id="4jUlqWk6TONZdT830c8g-26" value="Yes" style="edgeStyle=orthogonalEdgeStyle;rounded=0;orthogonalLoop=1;jettySize=auto;html=1;" edge="1" parent="1" source="4jUlqWk6TONZdT830c8g-10" target="4jUlqWk6TONZdT830c8g-16">
          <mxGeometry relative="1" as="geometry" />
        </mxCell>
        <mxCell id="4jUlqWk6TONZdT830c8g-10" value="Is Converging&amp;nbsp;with the reference PCD&amp;nbsp;" style="rhombus;whiteSpace=wrap;html=1;" vertex="1" parent="1">
          <mxGeometry x="331.5" y="2323" width="135" height="120" as="geometry" />
        </mxCell>
        <mxCell id="4jUlqWk6TONZdT830c8g-13" value="Use the Newton Optimizer Algorithm to compute a new transformation&amp;nbsp; parameter&amp;nbsp;" style="rounded=1;whiteSpace=wrap;html=1;" vertex="1" parent="1">
          <mxGeometry x="574" y="2143" width="136.09" height="60" as="geometry" />
        </mxCell>
        <mxCell id="4jUlqWk6TONZdT830c8g-27" value="" style="edgeStyle=orthogonalEdgeStyle;rounded=0;orthogonalLoop=1;jettySize=auto;html=1;" edge="1" parent="1" source="4jUlqWk6TONZdT830c8g-16" target="4jUlqWk6TONZdT830c8g-17">
          <mxGeometry relative="1" as="geometry" />
        </mxCell>
        <mxCell id="4jUlqWk6TONZdT830c8g-16" value="Input PCD is inline with the Reference PCD" style="rounded=1;whiteSpace=wrap;html=1;" vertex="1" parent="1">
          <mxGeometry x="324" y="2483" width="150" height="60" as="geometry" />
        </mxCell>
        <mxCell id="4jUlqWk6TONZdT830c8g-17" value="End" style="ellipse;whiteSpace=wrap;html=1;" vertex="1" parent="1">
          <mxGeometry x="359" y="2563" width="80" height="50" as="geometry" />
        </mxCell>
        <mxCell id="4jUlqWk6TONZdT830c8g-29" value="" style="endArrow=classic;html=1;rounded=0;exitX=0.5;exitY=0;exitDx=0;exitDy=0;" edge="1" parent="1" source="4jUlqWk6TONZdT830c8g-13">
          <mxGeometry width="50" height="50" relative="1" as="geometry">
            <mxPoint x="314" y="2163" as="sourcePoint" />
            <mxPoint x="404" y="2103" as="targetPoint" />
            <Array as="points">
              <mxPoint x="642" y="2103" />
            </Array>
          </mxGeometry>
        </mxCell>
        <mxCell id="4jUlqWk6TONZdT830c8g-30" value="&lt;h1&gt;Flow Chart of&amp;nbsp; NDT Mapping and Matching&amp;nbsp;&lt;/h1&gt;" style="text;html=1;strokeColor=none;fillColor=none;spacing=5;spacingTop=-20;whiteSpace=wrap;overflow=hidden;rounded=0;" vertex="1" parent="1">
          <mxGeometry x="484" y="1953" width="170" height="120" as="geometry" />
        </mxCell>
      </root>
    </mxGraphModel>
  </diagram>
</mxfile>
